<svg xmlns="http://www.w3.org/2000/svg" viewBox="0 0 287.82 328.69"><defs><style>.cls-1{fill:#252867;}.cls-2{fill:#2a2f80;}</style></defs><title>Asset 3</title><g id="Layer_2" data-name="Layer 2"><g id="Layer_1-2" data-name="Layer 1"><path class="cls-1" d="M37.82,56.13A154.91,154.91,0,0,1,205.67,7.73a157,157,0,0,1,62.82,39.13c-17.71-4-52.73-9.09-89.59,6.18a124.88,124.88,0,0,0-35,21.62c-27.49,24.57-35.12,55-37.58,65.39-2.51,10.6-7.21,31.83-.52,58.19a115.43,115.43,0,0,0,27.81,50.46,161.32,161.32,0,0,1-65.91-45.31c-24.89-28.64-32.35-58-34-64.88A150.16,150.16,0,0,1,37.82,56.13Z"/><path class="cls-1" d="M146.54,255a205.62,205.62,0,0,0,.33-62.89,209.76,209.76,0,0,0-17-56.64,109.44,109.44,0,0,1,18.8-8.84c7.13-2.55,23-8,43.05-6.19,23.57,2.18,40.3,13.31,47.9,19.15.18,11.24.32,28,0,48.4-.45,28.7-2.59,52.54-3.4,52.52-.6,0,2.27-13-3.42-26.11-5.4-12.45-16.4-20.15-26.44-25a132,132,0,0,1,.85,62.32q-16.77,1.28-34.34,2.2Q159.5,254.54,146.54,255Z"/><path class="cls-2" d="M38.85,55.1C28.8,67.48,5.24,99.9.74,147.78A169.46,169.46,0,0,0,13.1,229.13c5,11.82,26.76,59,80.32,84.44,9.38,4.45,45.63,20.34,91.66,13.39,12.72-1.92,34.91-5.53,57.66-21.63,10.06-7.11,29.16-21,39.14-47.37,13.17-34.78.73-65.62-2.06-72.08-7.93-18.36-19.88-29.65-26.78-36A124.45,124.45,0,0,0,216,126.15c22.54,26,27.78,61.42,13.39,88.56-16.73,31.54-52.25,37.34-57.67,38.11-28.68,4-50.6-9.14-68-19.57-6.66-4-33.87-21.07-53.55-55.61-16.41-28.81-19-54.81-19.56-60.76A143.9,143.9,0,0,1,38.85,55.1Z"/></g></g></svg>